# xmcd
#
# Track frame offsets:
#	150
#	16250
#	39867
#	58195
#	76410
#	98650
#	115740
#	132177
#	147952
#	165685
#	183492
#	201247
#	216662
#
# Disc length: 3098 seconds
#
# Revision: 0
# Processed by: cddbd v1.5.1PL2 Copyright (c) Steve Scherf et al.
# Submitted via: audiograbber 1.83.01
#
DISCID=b50c180d
DTITLE=NONATO LUIZ - CANÇÕES
DYEAR=1900
DGENRE=
TTITLE0=BAÚ DE BRINQUEDO-FAGNER
TTITLE1=PAGANDO PRA VER-BELCHIOR
TTITLE2=RUBI GRENÁ-KÁTIA FREITAS
TTITLE3=BAIÃO DA RUA-GERALDO AZEVEDO
TTITLE4=ABADONO-DAVID DUARTE
TTITLE5=SEDUÇÃO-ZÉ LUIZ MAZZIOTTI
TTITLE6=ENFIM PERTO DE MIM-EDNARDO
TTITLE7=O SONHO-FAUSTO NILO
TTITLE8=SAMBA-CHORO-MACHO PERO NO MUCHO
TTITLE9=ACALANTO E PAIXÃO
TTITLE10=AMOR DEMAIS-TÉTI
TTITLE11=QUIXERAMOBIM-CHICO PESSOA
TTITLE12=NA BEIRA DO RIO, NA BEIRA DO MAR-PAULINHO PEDRA AZUL
EXTD=
EXTT0=
EXTT1=
EXTT2=
EXTT3=
EXTT4=
EXTT5=
EXTT6=
EXTT7=
EXTT8=
EXTT9=
EXTT10=
EXTT11=
EXTT12=
PLAYORDER=
